<svg width="109" height="42" viewBox="0 0 109 42" fill="none" xmlns="http://www.w3.org/2000/svg">
<path fill-rule="evenodd" clip-rule="evenodd" d="M25.1773 29.4013H16.7843V21.0016H8.39135V12.6019H16.7843V4.2022H25.1773V12.6019H30.3569L36.6097 6.9921C33.3364 3.33223 28.8882 0.938312 24.0382 0.224337C19.1883 -0.489639 14.2364 0.518326 10.052 3.07424C5.86746 5.63015 2.70811 9.57801 1.12544 14.2219C-0.457236 18.8657 -0.367312 23.9175 1.38322 28.5014C3.13375 33.0852 6.43698 36.9131 10.7114 39.313C14.9858 41.7129 19.9676 42.5409 24.7936 41.6529C29.3797 40.8069 33.5403 38.449 36.6397 34.9811V21.0076H25.1833V29.4073L25.1773 29.4013ZM71.5441 8.9533C70.8606 7.77134 70.0333 6.70338 69.0561 5.74341C68.0969 4.76545 67.0298 3.93748 65.8488 3.2535C64.6858 2.55152 63.4328 2.01754 62.09 1.65156C60.7471 1.26157 59.3443 1.06958 57.8875 1.06958H42.0188V40.7462H49.9502V32.8085L58.8227 32.7545L62.2758 40.7522H70.7107L66.3164 30.3786C67.4615 29.6586 68.4926 28.8126 69.4098 27.8346C70.3271 26.8567 71.1064 25.7887 71.7299 24.6248C72.3773 23.4608 72.8629 22.2368 73.1927 20.9469C73.5404 19.6569 73.7202 18.325 73.7202 16.963C73.7202 15.5051 73.5284 14.1011 73.1387 12.7572C72.773 11.4132 72.2335 10.1473 71.5381 8.9653L71.5441 8.9533ZM65.1594 20.0469C64.7517 21.0069 64.1942 21.8469 63.4748 22.5668C62.7554 23.2868 61.9161 23.8568 60.9569 24.2828C59.9977 24.6908 58.9786 24.8888 57.8875 24.8888H49.9562V9.0073H57.8875C58.9726 9.0073 59.9977 9.21729 60.9569 9.64328C61.9161 10.0513 62.7554 10.6092 63.4748 11.3292C64.1942 12.0492 64.7577 12.8952 65.1594 13.8731C65.585 14.8331 65.7949 15.8531 65.7949 16.945C65.7949 18.037 65.585 19.069 65.1594 20.0409V20.0469ZM104.856 20.4369C105.941 21.5109 106.787 22.7708 107.398 24.2288C108.028 25.6687 108.339 27.2107 108.339 28.8486C108.339 30.4866 108.022 32.0285 107.398 33.4685C106.793 34.9084 105.941 36.1744 104.856 37.2603C103.783 38.3283 102.524 39.1743 101.067 39.8042C99.6287 40.4342 98.0939 40.7462 96.4513 40.7462H78.8381V32.8085H96.4513C97.0029 32.8085 97.5184 32.7065 97.998 32.5025C98.4776 32.3045 98.8973 32.0225 99.245 31.6745C99.6167 31.3085 99.8984 30.8825 100.102 30.4026C100.306 29.9226 100.408 29.4066 100.408 28.8546C100.408 28.3026 100.306 27.7867 100.102 27.3067C99.8984 26.8267 99.6107 26.4067 99.245 26.0587C98.8913 25.6867 98.4776 25.4047 97.998 25.2007C97.5184 24.9968 97.0029 24.8948 96.4513 24.8948H88.52C86.8833 24.8948 85.3426 24.5768 83.9038 23.9528C82.465 23.3288 81.2001 22.4768 80.115 21.4089C79.0479 20.3169 78.1966 19.057 77.5731 17.617C76.9437 16.1591 76.6319 14.6111 76.6319 12.9672C76.6319 11.3232 76.9497 9.78728 77.5731 8.34732C78.1966 6.90737 79.0479 5.65342 80.115 4.58545C81.2061 3.49349 82.465 2.64152 83.9038 2.01154C85.3426 1.38156 86.8773 1.06958 88.52 1.06958H106.709V9.0073H88.52C87.9684 9.0073 87.4529 9.1093 86.9733 9.31329C86.4937 9.51728 86.068 9.80527 85.7023 10.1713C85.3546 10.5253 85.0789 10.9392 84.875 11.4192C84.6712 11.8992 84.5693 12.4152 84.5693 12.9672C84.5693 13.5191 84.6712 14.0471 84.875 14.5451C85.0729 15.0251 85.3546 15.4511 85.7023 15.8171C86.068 16.1651 86.4937 16.441 86.9733 16.645C87.4529 16.849 87.9684 16.951 88.52 16.951H96.4513C98.0879 16.951 99.6287 17.263 101.067 17.893C102.524 18.499 103.789 19.3509 104.856 20.4369Z" fill="white"/>
</svg>
