<svg width="12" height="12" viewBox="0 0 12 12" fill="none" xmlns="http://www.w3.org/2000/svg">
<path fill-rule="evenodd" clip-rule="evenodd" d="M0.666992 3.33337C0.666992 1.67652 2.01014 0.333374 3.66699 0.333374H10.3337C10.8859 0.333374 11.3337 0.781089 11.3337 1.33337V11.3334C11.3337 11.7016 11.0352 12 10.667 12H3.00033C1.82483 12 0.852365 11.1308 0.690622 10H0.666992V3.33337ZM10.3337 8.33337H3.00033C2.26395 8.33337 1.66699 8.93033 1.66699 9.66671C1.66699 10.4031 2.26395 11 3.00033 11H10.3337V8.33337ZM3.50033 3.33337C3.50033 3.05723 3.72418 2.83337 4.00033 2.83337H8.66699C8.94313 2.83337 9.16699 3.05723 9.16699 3.33337C9.16699 3.60952 8.94313 3.83337 8.66699 3.83337H4.00033C3.72418 3.83337 3.50033 3.60952 3.50033 3.33337ZM4.00033 4.83337C3.72418 4.83337 3.50033 5.05723 3.50033 5.33337C3.50033 5.60952 3.72418 5.83337 4.00033 5.83337H7.33366C7.6098 5.83337 7.83366 5.60952 7.83366 5.33337C7.83366 5.05723 7.6098 4.83337 7.33366 4.83337H4.00033Z" fill="white"/>
</svg>
