<svg width="24" height="16" viewBox="0 0 24 16" fill="none" xmlns="http://www.w3.org/2000/svg">
<path fill-rule="evenodd" clip-rule="evenodd" d="M5.70828 0.267477C8.64926 0.00451939 11.6088 0.0274714 14.5453 0.336011L15.305 0.415827C16.7549 0.568168 17.9219 1.66794 18.1646 3.09932L22.2625 0.922123C22.5402 0.774577 22.8734 0.776098 23.1498 0.926172C23.4261 1.07625 23.6088 1.35488 23.6363 1.66815L23.6674 2.02296C24.0161 6.00004 24.0161 10 23.6674 13.9771L23.6363 14.3319C23.6088 14.6452 23.4261 14.9238 23.1498 15.0739C22.8734 15.224 22.5402 15.2255 22.2625 15.0779L18.1646 12.9007C17.9219 14.3321 16.7549 15.4319 15.305 15.5842L14.5453 15.6641C11.6088 15.9726 8.64926 15.9956 5.70828 15.7326L3.73105 15.5558C2.24118 15.4226 1.0374 14.2844 0.821014 12.8043C0.355235 9.6184 0.355235 6.38168 0.821013 3.19575C1.0374 1.71567 2.24118 0.577477 3.73105 0.444265L5.70828 0.267477ZM18.3958 10.9583C18.4961 10.9741 18.5955 11.0065 18.6902 11.0568L21.884 12.7536C22.1106 9.58861 22.1106 6.41145 21.884 3.24645L18.6902 4.94327C18.5955 4.99357 18.4961 5.02601 18.3958 5.04176C18.571 7.01004 18.571 8.99002 18.3958 10.9583Z" fill="white"/>
</svg>
