<svg width="170" height="56" viewBox="0 0 170 56" fill="none" xmlns="http://www.w3.org/2000/svg">
<path d="M102.702 12.3028C101.721 10.6783 100.534 9.21047 99.1308 7.89108C97.7538 6.54695 96.222 5.40897 94.5266 4.4689C92.8571 3.5041 91.0585 2.77019 89.1308 2.26717C87.203 1.73116 85.1893 1.46729 83.0981 1.46729H60.3184V55.9995H71.7039V45.0897L84.4406 45.0155L89.3975 56.0077H101.506L95.1979 41.75C96.8416 40.7605 98.3218 39.5978 99.6385 38.2536C100.955 36.9095 102.074 35.4417 102.969 33.8419C103.898 32.2421 104.595 30.5599 105.069 28.787C105.568 27.014 105.826 25.1834 105.826 23.3115C105.826 21.3077 105.551 19.378 104.991 17.5309C104.466 15.6837 103.692 13.9438 102.694 12.3193L102.702 12.3028ZM93.537 27.55C92.9518 28.8694 92.1514 30.0239 91.1187 31.0134C90.086 32.003 88.8812 32.7864 87.5043 33.3719C86.1273 33.9326 84.6643 34.2047 83.0981 34.2047H71.7125V12.377H83.0981C84.6557 12.377 86.1273 12.6656 87.5043 13.2511C88.8812 13.8119 90.086 14.5788 91.1187 15.5683C92.1514 16.5578 92.9604 17.7206 93.537 19.0647C94.148 20.3841 94.4492 21.7859 94.4492 23.2868C94.4492 24.7876 94.148 26.2059 93.537 27.5418V27.55Z" fill="#3D334A"/>
<path d="M154.173 33.2977C153.295 31.2938 152.082 29.5621 150.524 28.086C148.992 26.5935 147.176 25.4225 145.085 24.5897C143.02 23.7238 140.808 23.295 138.459 23.295H127.073C126.281 23.295 125.541 23.1548 124.853 22.8744C124.164 22.5941 123.553 22.2147 123.028 21.7365C122.529 21.2334 122.125 20.648 121.841 19.9883C121.548 19.3038 121.402 18.5782 121.402 17.8195C121.402 17.0609 121.548 16.3517 121.841 15.692C122.133 15.0323 122.529 14.4633 123.028 13.9768C123.553 13.4738 124.164 13.0779 124.853 12.7976C125.541 12.5172 126.281 12.377 127.073 12.377H153.183V1.46729H127.073C124.715 1.46729 122.512 1.89609 120.447 2.76194C118.381 3.62779 116.574 4.79875 115.008 6.29956C113.476 7.76739 112.254 9.49085 111.359 11.4699C110.464 13.449 110.008 15.5601 110.008 17.8195C110.008 20.079 110.455 22.2065 111.359 24.2103C112.254 26.1894 113.476 27.9211 115.008 29.4219C116.565 30.8898 118.381 32.0607 120.447 32.9183C122.512 33.7759 124.724 34.213 127.073 34.213H138.459C139.25 34.213 139.991 34.3532 140.679 34.6335C141.368 34.9139 141.961 35.3015 142.469 35.8127C142.994 36.291 143.407 36.8683 143.7 37.528C143.992 38.1877 144.139 38.8968 144.139 39.6555C144.139 40.4141 143.992 41.1233 143.7 41.783C143.407 42.4427 143.003 43.0282 142.469 43.5312C141.97 44.0095 141.368 44.397 140.679 44.6692C139.991 44.9495 139.25 45.0897 138.459 45.0897H113.175V55.9995H138.459C140.817 55.9995 143.02 55.5707 145.085 54.7048C147.176 53.839 148.984 52.6762 150.524 51.2084C152.082 49.7159 153.304 47.9759 154.173 45.9968C155.068 44.0177 155.524 41.8984 155.524 39.6472C155.524 37.396 155.077 35.2767 154.173 33.2977Z" fill="#3D334A"/>
<path d="M164.31 12.3775C163.527 12.3775 162.796 12.2373 162.107 11.9486C161.419 11.66 160.808 11.2725 160.283 10.7694C159.758 10.2664 159.353 9.68919 159.052 9.02949C158.751 8.36979 158.613 7.66887 158.613 6.91022C158.613 6.15981 158.768 5.45064 159.069 4.79094C159.371 4.13124 159.775 3.54576 160.3 3.05099C160.825 2.55622 161.427 2.1604 162.116 1.88003C162.804 1.59966 163.536 1.45947 164.319 1.45947C165.102 1.45947 165.851 1.59966 166.539 1.88003C167.228 2.1604 167.83 2.55622 168.355 3.05099C168.88 3.54576 169.285 4.13124 169.577 4.79094C169.87 5.45064 170.016 6.15981 170.016 6.91022C170.016 7.66062 169.878 8.36979 169.586 9.02949C169.293 9.68919 168.88 10.2664 168.364 10.7694C167.847 11.2725 167.236 11.66 166.548 11.9486C165.859 12.2373 165.119 12.3775 164.328 12.3775H164.31ZM164.31 11.0003C164.904 11.0003 165.455 10.8931 165.971 10.687C166.488 10.4808 166.944 10.184 167.331 9.81288C167.718 9.4418 168.028 9.00475 168.243 8.50998C168.458 8.01521 168.57 7.48745 168.57 6.92671C168.57 6.36597 168.458 5.82996 168.235 5.33519C168.011 4.84042 167.71 4.41161 167.322 4.03229C166.935 3.65296 166.479 3.36435 165.971 3.14995C165.464 2.93554 164.904 2.82834 164.31 2.82834C163.717 2.82834 163.174 2.93554 162.667 3.14995C162.159 3.36435 161.703 3.65296 161.307 4.03229C160.911 4.41161 160.61 4.84042 160.386 5.33519C160.162 5.82996 160.05 6.35772 160.05 6.92671C160.05 7.48745 160.154 8.01521 160.369 8.50173C160.584 8.98826 160.894 9.42531 161.29 9.80464C161.686 10.184 162.133 10.4726 162.649 10.687C163.166 10.9014 163.717 11.0086 164.302 11.0086L164.31 11.0003ZM161.221 6.91846C161.221 6.35772 161.359 5.8547 161.643 5.39291C161.927 4.93113 162.305 4.56829 162.779 4.29617C163.252 4.02404 163.785 3.8921 164.362 3.8921C164.87 3.8921 165.343 3.99106 165.765 4.19721C166.186 4.40337 166.548 4.69199 166.823 5.05482C167.099 5.41765 167.271 5.82172 167.34 6.27526H165.928C165.868 5.95366 165.679 5.68978 165.377 5.48362C165.076 5.27747 164.732 5.17851 164.353 5.17851C164.026 5.17851 163.725 5.25273 163.45 5.40941C163.174 5.56608 162.959 5.77224 162.796 6.03612C162.632 6.3 162.546 6.58861 162.546 6.91022C162.546 7.22357 162.632 7.51219 162.796 7.77607C162.959 8.03995 163.174 8.2461 163.45 8.40278C163.725 8.55946 164.026 8.63367 164.353 8.63367C164.732 8.63367 165.059 8.53472 165.326 8.32856C165.593 8.12241 165.765 7.85853 165.834 7.53693H167.236C167.176 7.99047 167.013 8.40278 166.746 8.75737C166.479 9.11195 166.143 9.40057 165.73 9.60673C165.317 9.81288 164.861 9.92008 164.353 9.92008C163.777 9.92008 163.243 9.78814 162.77 9.51602C162.297 9.24389 161.909 8.88106 161.634 8.42752C161.359 7.97398 161.212 7.46271 161.212 6.91022L161.221 6.91846Z" fill="#3D334A"/>
<path d="M36.1448 28.8605V40.4052H24.0966V28.8605H12.0484V17.3158H24.0966V5.77114H36.1448V17.3158H43.5802L52.5561 9.60563C47.8573 4.57544 41.4718 1.28521 34.5097 0.303907C27.5475 -0.677392 20.4391 0.707971 14.4322 4.22086C8.42531 7.73374 3.89003 13.1597 1.61808 19.5423C-0.653863 25.9249 -0.524776 32.8682 1.98813 39.1683C4.50104 45.4684 9.24287 50.7295 15.3788 54.0279C17.7799 55.3144 20.4907 55.9905 23.2446 55.9905H52.5905V28.8605H36.1448Z" fill="#3D334A"/>
</svg>
