<svg width="84" height="30" viewBox="0 0 84 30" fill="none" xmlns="http://www.w3.org/2000/svg">
<path fill-rule="evenodd" clip-rule="evenodd" d="M17.8693 20.9757H11.9122V14.983H5.9552V8.99024H11.9122V2.99751H17.8693V8.99024H21.5456L25.9836 4.98795C23.6604 2.37684 20.5031 0.668911 17.0608 0.159529C13.6185 -0.349853 10.1039 0.369274 7.13384 2.19278C4.16383 4.01628 1.92143 6.83286 0.798104 10.146C-0.325224 13.4591 -0.261398 17.0633 0.98107 20.3336C2.22354 23.6039 4.56806 26.3349 7.60189 28.0471C10.6357 29.7593 14.1717 30.35 17.597 29.7165C20.8521 29.113 23.805 27.4307 26.0049 24.9566V14.9872H17.8735V20.98L17.8693 20.9757ZM50.7783 6.3873C50.2932 5.54403 49.706 4.7821 49.0124 4.09722C48.3316 3.39949 47.5742 2.80878 46.736 2.3208C45.9105 1.81998 45.0212 1.43902 44.0681 1.17791C43.115 0.899672 42.1193 0.762695 41.0853 0.762695H29.8223V29.0698H35.4517V23.4066L41.7491 23.3681L44.2 29.074H50.1868L47.0679 21.673C47.8806 21.1594 48.6125 20.5558 49.2635 19.8581C49.9145 19.1604 50.4677 18.3984 50.9102 17.568C51.3697 16.7376 51.7144 15.8644 51.9484 14.9441C52.1952 14.0237 52.3229 13.0735 52.3229 12.1018C52.3229 11.0616 52.1867 10.06 51.9101 9.10115C51.6506 8.14231 51.2676 7.23912 50.774 6.39586L50.7783 6.3873ZM46.2467 14.302C45.9573 14.9869 45.5616 15.5861 45.051 16.0998C44.5404 16.6135 43.9447 17.0201 43.2639 17.324C42.5831 17.6151 41.8597 17.7564 41.0853 17.7564H35.4559V6.42582H41.0853C41.8555 6.42582 42.5831 6.57564 43.2639 6.87956C43.9447 7.17063 44.5404 7.56872 45.051 8.08238C45.5616 8.59604 45.9616 9.1996 46.2467 9.89732C46.5488 10.5822 46.6977 11.3099 46.6977 12.0889C46.6977 12.868 46.5488 13.6043 46.2467 14.2977V14.302ZM74.4231 14.5804C75.1932 15.3466 75.7932 16.2456 76.2272 17.2857C76.674 18.313 76.8953 19.4131 76.8953 20.5817C76.8953 21.7503 76.6697 22.8504 76.2272 23.8777C75.7975 24.905 75.1932 25.8082 74.4231 26.583C73.6614 27.3449 72.7679 27.9485 71.7339 28.3979C70.7127 28.8474 69.6234 29.07 68.4575 29.07H55.9563V23.4069H68.4575C68.849 23.4069 69.2149 23.3341 69.5553 23.1886C69.8957 23.0473 70.1936 22.8461 70.4404 22.5978C70.7042 22.3367 70.9042 22.0328 71.0488 21.6904C71.1935 21.3479 71.2659 20.9798 71.2659 20.586C71.2659 20.1922 71.1935 19.8241 71.0488 19.4816C70.9042 19.1392 70.6999 18.8395 70.4404 18.5913C70.1893 18.3259 69.8957 18.1247 69.5553 17.9792C69.2149 17.8336 68.849 17.7609 68.4575 17.7609H62.8281C61.6665 17.7609 60.573 17.534 59.5518 17.0888C58.5306 16.6436 57.6327 16.0358 56.8626 15.2739C56.1052 14.4948 55.501 13.5959 55.0584 12.5686C54.6117 11.5284 54.3904 10.424 54.3904 9.25118C54.3904 8.07832 54.6159 6.98251 55.0584 5.95518C55.501 4.92786 56.1052 4.03323 56.8626 3.2713C57.637 2.49224 58.5306 1.88441 59.5518 1.43496C60.573 0.985502 61.6623 0.762915 62.8281 0.762915H75.7379V6.42604H62.8281C62.4367 6.42604 62.0707 6.49881 61.7303 6.64435C61.3899 6.78989 61.0878 6.99535 60.8283 7.25646C60.5815 7.50901 60.3857 7.80437 60.2411 8.14681C60.0964 8.48925 60.0241 8.85738 60.0241 9.25118C60.0241 9.64499 60.0964 10.0217 60.2411 10.377C60.3815 10.7194 60.5815 11.0233 60.8283 11.2844C61.0878 11.5327 61.3899 11.7296 61.7303 11.8751C62.0707 12.0207 62.4367 12.0934 62.8281 12.0934H68.4575C69.6192 12.0934 70.7127 12.316 71.7339 12.7655C72.7679 13.1978 73.6657 13.8057 74.4231 14.5804Z" fill="white"/>
<path d="M81.1791 6.4262C80.7919 6.4262 80.4302 6.35343 80.0898 6.20361C79.7494 6.05379 79.4473 5.85261 79.1878 5.5915C78.9282 5.33038 78.7282 5.03075 78.5793 4.68831C78.4304 4.34586 78.3623 3.98202 78.3623 3.58821C78.3623 3.19868 78.4389 2.83056 78.5878 2.48812C78.7367 2.14568 78.9367 1.84176 79.1963 1.58493C79.4558 1.3281 79.7537 1.12263 80.0941 0.977096C80.4345 0.831558 80.7962 0.758789 81.1834 0.758789C81.5706 0.758789 81.9408 0.831558 82.2812 0.977096C82.6216 1.12263 82.9194 1.3281 83.179 1.58493C83.4386 1.84176 83.6385 2.14568 83.7832 2.48812C83.9279 2.83056 84.0002 3.19868 84.0002 3.58821C84.0002 3.97774 83.9321 4.34586 83.7875 4.68831C83.6428 5.03075 83.4386 5.33038 83.1833 5.5915C82.928 5.85261 82.6258 6.05379 82.2854 6.20361C81.945 6.35343 81.5791 6.4262 81.1876 6.4262H81.1791ZM81.1791 5.71135C81.4727 5.71135 81.7451 5.6557 82.0004 5.54869C82.2557 5.44168 82.4812 5.28758 82.6727 5.09495C82.8641 4.90233 83.0173 4.67546 83.1237 4.41863C83.2301 4.1618 83.2854 3.88785 83.2854 3.59677C83.2854 3.3057 83.2301 3.02746 83.1194 2.77063C83.0088 2.5138 82.8599 2.29121 82.6684 2.09431C82.4769 1.89741 82.2514 1.74759 82.0004 1.6363C81.7493 1.525 81.4727 1.46936 81.1791 1.46936C80.8855 1.46936 80.6175 1.525 80.3664 1.6363C80.1154 1.74759 79.8899 1.89741 79.6941 2.09431C79.4984 2.29121 79.3495 2.5138 79.2388 2.77063C79.1282 3.02746 79.0729 3.30142 79.0729 3.59677C79.0729 3.88785 79.124 4.1618 79.2303 4.41435C79.3367 4.6669 79.4899 4.89377 79.6856 5.09067C79.8813 5.28758 80.1026 5.4374 80.3579 5.54869C80.6132 5.65998 80.8855 5.71563 81.1749 5.71563L81.1791 5.71135ZM79.6516 3.59249C79.6516 3.30142 79.7197 3.04031 79.8601 2.8006C80.0005 2.56089 80.1877 2.37254 80.4217 2.23129C80.6558 2.09003 80.9196 2.02154 81.2047 2.02154C81.4557 2.02154 81.6897 2.07291 81.8982 2.17992C82.1067 2.28693 82.2854 2.43675 82.4216 2.6251C82.5578 2.81344 82.6429 3.02318 82.6769 3.25861H81.9791C81.9493 3.09167 81.8557 2.9547 81.7068 2.84768C81.5578 2.74067 81.3876 2.6893 81.2004 2.6893C81.0387 2.6893 80.8898 2.72783 80.7536 2.80916C80.6175 2.89049 80.5111 2.9975 80.4302 3.13448C80.3494 3.27145 80.3069 3.42127 80.3069 3.58821C80.3069 3.75087 80.3494 3.90069 80.4302 4.03767C80.5111 4.17464 80.6175 4.28166 80.7536 4.36299C80.8898 4.44432 81.0387 4.48284 81.2004 4.48284C81.3876 4.48284 81.5493 4.43147 81.6812 4.32446C81.8131 4.21745 81.8982 4.08047 81.9323 3.91353H82.6258C82.5961 4.14896 82.5152 4.36299 82.3833 4.54705C82.2514 4.73111 82.0855 4.88093 81.8812 4.98794C81.677 5.09495 81.4515 5.1506 81.2004 5.1506C80.9153 5.1506 80.6515 5.08211 80.4175 4.94086C80.1835 4.7996 79.992 4.61126 79.8558 4.37583C79.7197 4.1404 79.6473 3.87501 79.6473 3.58821L79.6516 3.59249Z" fill="white"/>
</svg>
