<svg width="22" height="22" viewBox="0 0 22 22" fill="none" xmlns="http://www.w3.org/2000/svg">
<path d="M11.0003 0C8.2389 0 6.00033 2.23858 6.00033 5C6.00033 7.76142 8.2389 10 11.0003 10C13.7617 10 16.0003 7.76142 16.0003 5C16.0003 2.23858 13.7617 0 11.0003 0Z" fill="white"/>
<path d="M5.66699 12.6667C2.90557 12.6667 0.666992 14.9052 0.666992 17.6667V19.251C0.666992 20.2554 1.39484 21.1117 2.38602 21.2735C8.09112 22.2049 13.9095 22.2049 19.6146 21.2735C20.6058 21.1117 21.3337 20.2554 21.3337 19.251V17.6667C21.3337 14.9052 19.0951 12.6667 16.3337 12.6667H15.8792C15.6332 12.6667 15.3887 12.7056 15.1549 12.7819L14.0009 13.1587C12.0512 13.7954 9.94949 13.7954 7.99977 13.1587L6.84576 12.7819C6.61192 12.7056 6.36747 12.6667 6.12148 12.6667H5.66699Z" fill="white"/>
</svg>
